<?xml version="1.0" standalone="no"?>
<!DOCTYPE svg PUBLIC "-//W3C//DTD SVG 20010904//EN"
 "http://www.w3.org/TR/2001/REC-SVG-20010904/DTD/svg10.dtd">
<svg version="1.0" xmlns="http://www.w3.org/2000/svg"
 width="512.000000pt" height="512.000000pt" viewBox="0 0 512.000000 512.000000"
 preserveAspectRatio="xMidYMid meet">

<g transform="translate(0.000000,512.000000) scale(0.100000,-0.100000)"
fill="#000000" stroke="none">
<path d="M2508 4051 c-31 -10 -79 -35 -105 -54 -26 -20 -400 -388 -830 -819
-896 -897 -838 -828 -838 -1003 0 -94 2 -103 33 -161 46 -85 219 -254 294
-289 106 -48 238 -42 338 17 19 12 306 291 638 622 l602 601 603 -601 c331
-331 618 -610 637 -622 58 -34 147 -55 209 -49 110 10 163 39 282 154 144 139
174 196 174 328 0 164 66 87 -849 1003 -446 448 -827 824 -847 837 -85 55
-232 70 -341 36z"/>
</g>
</svg>
